<svg width="574" height="99" viewBox="0 0 574 99" fill="none" xmlns="http://www.w3.org/2000/svg">
<path d="M48.5155 97C41.1768 97 34.5635 95.8907 28.6755 93.672C22.7875 91.368 17.7955 88.168 13.6995 84.072C9.6035 79.976 6.44617 75.24 4.2275 69.864C2.00883 64.4027 0.8995 58.5147 0.8995 52.2C0.8995 45.8853 2.00883 40.04 4.2275 34.664C6.44617 29.2027 9.6035 24.424 13.6995 20.328C17.8808 16.232 22.8728 13.0747 28.6755 10.856C34.5635 8.55199 41.1768 7.39999 48.5155 7.39999H62.3395V25.32H49.0275C45.0168 25.32 41.3475 26.0027 38.0195 27.368C34.7768 28.7333 31.9608 30.6533 29.5715 33.128C27.2675 35.5173 25.4755 38.3333 24.1955 41.576C23.0008 44.8187 22.4035 48.36 22.4035 52.2C22.4035 56.04 23.0008 59.5813 24.1955 62.824C25.4755 66.0667 27.2675 68.9253 29.5715 71.4C31.9608 73.7893 34.7768 75.6667 38.0195 77.032C41.3475 78.3973 45.0168 79.08 49.0275 79.08H62.3395V97H48.5155ZM74.1115 97V3.56H93.9515V97H74.1115ZM141.124 98.536C134.382 98.536 128.324 97.0427 122.948 94.056C117.572 91.0693 113.305 86.9733 110.148 81.768C107.076 76.5627 105.54 70.7173 105.54 64.232C105.54 57.6613 107.076 51.816 110.148 46.696C113.305 41.4907 117.572 37.3947 122.948 34.408C128.324 31.336 134.382 29.8 141.124 29.8C147.865 29.8 153.881 31.336 159.172 34.408C164.548 37.3947 168.772 41.4907 171.844 46.696C175.001 51.816 176.58 57.6613 176.58 64.232C176.58 70.7173 175.001 76.5627 171.844 81.768C168.772 86.9733 164.548 91.0693 159.172 94.056C153.796 97.0427 147.78 98.536 141.124 98.536ZM141.124 81.256C144.281 81.256 147.012 80.488 149.316 78.952C151.62 77.416 153.412 75.368 154.692 72.808C155.972 70.248 156.612 67.3467 156.612 64.104C156.612 60.9467 155.972 58.088 154.692 55.528C153.412 52.968 151.62 50.92 149.316 49.384C147.012 47.848 144.281 47.08 141.124 47.08C137.966 47.08 135.193 47.848 132.804 49.384C130.5 50.92 128.708 52.968 127.428 55.528C126.148 58.088 125.508 60.9467 125.508 64.104C125.508 67.3467 126.148 70.248 127.428 72.808C128.708 75.368 130.5 77.416 132.804 78.952C135.193 80.488 137.966 81.256 141.124 81.256ZM188.49 97V81.256H220.106C220.959 81.256 221.727 81.0853 222.41 80.744C223.092 80.3173 223.647 79.7627 224.074 79.08C224.5 78.3973 224.714 77.672 224.714 76.904C224.714 76.0507 224.5 75.2827 224.074 74.6C223.647 73.9173 223.092 73.4053 222.41 73.064C221.727 72.6373 220.959 72.424 220.106 72.424H208.586C204.319 72.424 200.436 71.7413 196.938 70.376C193.524 68.9253 190.794 66.7067 188.746 63.72C186.783 60.648 185.802 56.68 185.802 51.816C185.802 48.0613 186.698 44.648 188.49 41.576C190.367 38.504 192.884 36.0293 196.042 34.152C199.284 32.2747 202.826 31.336 206.666 31.336H238.282V47.208H209.738C208.543 47.208 207.519 47.592 206.666 48.36C205.898 49.128 205.514 50.0667 205.514 51.176C205.514 52.3707 205.898 53.3947 206.666 54.248C207.519 55.016 208.543 55.4 209.738 55.4H221.002C225.78 55.4 229.876 56.1253 233.29 57.576C236.788 58.9413 239.476 61.16 241.354 64.232C243.316 67.304 244.298 71.272 244.298 76.136C244.298 79.976 243.316 83.4747 241.354 86.632C239.476 89.7893 236.916 92.3067 233.674 94.184C230.516 96.0613 226.932 97 222.922 97H188.49ZM290.541 97C283.117 97 276.589 95.6347 270.957 92.904C265.325 90.088 260.93 86.248 257.773 81.384C254.701 76.4347 253.165 70.7173 253.165 64.232C253.165 57.064 254.658 50.92 257.645 45.8C260.631 40.68 264.599 36.7547 269.549 34.024C274.583 31.208 280.13 29.8 286.189 29.8C293.101 29.8 298.861 31.2507 303.469 34.152C308.162 37.0533 311.703 41.0213 314.093 46.056C316.482 51.0053 317.677 56.68 317.677 63.08C317.677 64.1893 317.591 65.512 317.421 67.048C317.335 68.4987 317.207 69.6507 317.037 70.504H274.029C274.541 72.7227 275.522 74.6 276.973 76.136C278.423 77.672 280.258 78.824 282.477 79.592C284.695 80.2747 287.17 80.616 289.901 80.616H309.997V97H290.541ZM273.517 58.088H298.477C298.306 56.7227 298.05 55.4 297.709 54.12C297.367 52.84 296.813 51.7307 296.045 50.792C295.362 49.768 294.551 48.9147 293.613 48.232C292.674 47.464 291.565 46.8667 290.285 46.44C289.09 46.0133 287.725 45.8 286.189 45.8C284.226 45.8 282.477 46.1413 280.941 46.824C279.405 47.5067 278.125 48.4453 277.101 49.64C276.077 50.7493 275.266 52.072 274.669 53.608C274.157 55.0587 273.773 56.552 273.517 58.088ZM329.621 97V7.39999H351.125V43.624H365.973C368.447 43.624 370.709 43.112 372.757 42.088C374.89 41.064 376.554 39.528 377.749 37.48C378.943 35.432 379.541 33.0427 379.541 30.312V7.39999H401.045V30.44C401.045 36.1573 399.679 41.2773 396.949 45.8C394.218 50.3227 390.634 53.9493 386.197 56.68L395.925 77.16C396.181 77.8427 396.607 78.3547 397.205 78.696C397.887 79.0373 398.613 79.208 399.381 79.208H407.445V97H395.029C390.335 97 386.538 96.104 383.637 94.312C380.735 92.52 378.517 90.0453 376.981 86.888L364.821 61.544C364.138 61.544 363.498 61.544 362.901 61.544C362.303 61.544 361.663 61.544 360.981 61.544H351.125V97H329.621ZM415.862 97V59.24C415.862 53.7787 417.184 48.8293 419.83 44.392C422.475 39.9547 426.23 36.4133 431.094 33.768C436.043 31.1227 441.888 29.8 448.63 29.8C455.456 29.8 461.259 31.1227 466.038 33.768C470.902 36.4133 474.614 39.9547 477.174 44.392C479.734 48.8293 481.014 53.7787 481.014 59.24V97H461.174V59.752C461.174 57.448 460.619 55.3573 459.51 53.48C458.4 51.5173 456.864 49.9813 454.902 48.872C453.024 47.6773 450.891 47.08 448.502 47.08C446.027 47.08 443.808 47.6773 441.846 48.872C439.968 49.9813 438.475 51.5173 437.366 53.48C436.256 55.3573 435.702 57.448 435.702 59.752V97H415.862ZM495.862 97V31.336H515.83V97H495.862ZM505.846 23.912C502.688 23.912 499.958 22.76 497.654 20.456C495.35 18.152 494.198 15.4213 494.198 12.264C494.198 9.10666 495.35 6.37599 497.654 4.072C499.958 1.68267 502.688 0.487999 505.846 0.487999C509.003 0.487999 511.734 1.68267 514.038 4.072C516.342 6.37599 517.494 9.10666 517.494 12.264C517.494 15.4213 516.342 18.152 514.038 20.456C511.734 22.76 509.003 23.912 505.846 23.912ZM554.426 97C548.367 97 543.631 95.2933 540.218 91.88C536.804 88.3813 535.098 83.688 535.098 77.8V15.336H555.066V76.648C555.066 77.672 555.407 78.568 556.09 79.336C556.858 80.0187 557.754 80.36 558.778 80.36H573.114V97H554.426ZM524.346 47.592V31.336H573.114V47.592H524.346Z" fill="white"/>
</svg>
