<svg width="320" height="128" viewBox="0 0 320 128" fill="none" xmlns="http://www.w3.org/2000/svg">
<path d="M0.285001 6.79199H59.165V24.712H18.845V46.088H53.789V64.008H18.845V101H0.285001V6.79199ZM96.486 102.536C89.6593 102.536 83.8567 101.256 79.078 98.696C74.3847 96.136 70.8007 92.5947 68.326 88.072C65.8513 83.5493 64.614 78.344 64.614 72.456C64.614 66.824 66.0647 61.7467 68.966 57.224C71.8673 52.7013 75.75 49.1173 80.614 46.472C85.478 43.7413 90.8967 42.376 96.87 42.376C104.891 42.376 111.462 44.7227 116.582 49.416C121.787 54.024 125.158 60.7227 126.694 69.512L83.174 83.336L79.206 73.608L110.694 62.984L106.982 64.648C106.299 62.4293 105.062 60.5093 103.27 58.888C101.563 57.1813 98.9607 56.328 95.462 56.328C91.4513 56.328 88.2513 57.6933 85.862 60.424C83.4727 63.1547 82.278 66.824 82.278 71.432C82.278 76.6373 83.686 80.6053 86.502 83.336C89.318 85.9813 92.774 87.304 96.87 87.304C98.8327 87.304 100.71 86.9627 102.502 86.28C104.379 85.5973 106.214 84.7013 108.006 83.592L115.942 96.904C112.955 98.6107 109.713 99.976 106.214 101C102.801 102.024 99.558 102.536 96.486 102.536ZM177.777 45.064L190.065 73.864L186.737 74.12L197.489 45.064H214.897L189.681 104.328L171.761 67.208L155.377 104.328L129.905 45.064H147.313L160.881 76.168L154.737 75.272L165.489 51.464L162.545 45.064H177.777ZM225.341 0.00799561H243.261V101H225.341V0.00799561ZM266.196 127.88L303.444 45.064H319.572L283.476 127.88H266.196ZM281.172 101.256L253.78 45.064H273.876L294.996 92.296L281.172 101.256Z" fill="#FF6700"/>
</svg>
