<svg width="727" height="128" viewBox="0 0 727 128" fill="none" xmlns="http://www.w3.org/2000/svg">
<path d="M0.535001 6.79199H59.415V24.712H19.095V46.088H54.039V64.008H19.095V101H0.535001V6.79199ZM90.469 45.064L92.133 60.424L91.749 58.12C93.3703 54.792 95.589 51.976 98.405 49.672C101.221 47.2827 103.994 45.448 106.725 44.168C109.541 42.888 111.674 42.248 113.125 42.248L112.229 60.168C108.048 59.656 104.464 60.3387 101.477 62.216C98.4903 64.0933 96.1863 66.568 94.565 69.64C92.9437 72.712 92.133 75.8693 92.133 79.112V101H74.341V45.064H90.469ZM126.841 45.064H144.761V101H126.841V45.064ZM126.457 25.224C126.457 22.5787 127.481 20.4027 129.529 18.696C131.662 16.9893 133.924 16.136 136.313 16.136C138.702 16.136 140.878 16.9893 142.841 18.696C144.889 20.4027 145.913 22.5787 145.913 25.224C145.913 27.8693 144.889 30.0453 142.841 31.752C140.878 33.3733 138.702 34.184 136.313 34.184C133.924 34.184 131.662 33.3733 129.529 31.752C127.481 30.0453 126.457 27.8693 126.457 25.224ZM190.736 102.536C183.909 102.536 178.107 101.256 173.328 98.696C168.635 96.136 165.051 92.5947 162.576 88.072C160.101 83.5493 158.864 78.344 158.864 72.456C158.864 66.824 160.315 61.7467 163.216 57.224C166.117 52.7013 170 49.1173 174.864 46.472C179.728 43.7413 185.147 42.376 191.12 42.376C199.141 42.376 205.712 44.7227 210.832 49.416C216.037 54.024 219.408 60.7227 220.944 69.512L177.424 83.336L173.456 73.608L204.944 62.984L201.232 64.648C200.549 62.4293 199.312 60.5093 197.52 58.888C195.813 57.1813 193.211 56.328 189.712 56.328C185.701 56.328 182.501 57.6933 180.112 60.424C177.723 63.1547 176.528 66.824 176.528 71.432C176.528 76.6373 177.936 80.6053 180.752 83.336C183.568 85.9813 187.024 87.304 191.12 87.304C193.083 87.304 194.96 86.9627 196.752 86.28C198.629 85.5973 200.464 84.7013 202.256 83.592L210.192 96.904C207.205 98.6107 203.963 99.976 200.464 101C197.051 102.024 193.808 102.536 190.736 102.536ZM250.222 45.064L251.63 55.048L251.374 54.152C253.337 50.6533 256.11 47.8373 259.694 45.704C263.278 43.4853 267.673 42.376 272.878 42.376C278.169 42.376 282.563 43.9547 286.062 47.112C289.646 50.184 291.481 54.1947 291.566 59.144V101H273.646V65.8C273.561 63.3253 272.878 61.3627 271.598 59.912C270.403 58.376 268.355 57.608 265.454 57.608C261.273 57.608 257.945 59.5707 255.47 63.496C253.081 67.336 251.886 72.2427 251.886 78.216V101H233.966V45.064H250.222ZM332.75 102.536C327.545 102.536 322.894 101.341 318.798 98.952C314.702 96.4773 311.459 92.936 309.07 88.328C306.766 83.72 305.614 78.2587 305.614 71.944C305.614 65.6293 306.894 60.2533 309.454 55.816C312.014 51.3787 315.513 48.008 319.95 45.704C324.387 43.4 329.422 42.248 335.054 42.248C338.638 42.248 342.051 42.8027 345.294 43.912C348.622 45.0213 351.395 46.728 353.614 49.032V54.664V0.00799561H371.406V101H353.486V90.12L354.894 93.96C351.993 96.3493 348.75 98.3973 345.166 100.104C341.582 101.725 337.443 102.536 332.75 102.536ZM338.638 87.432C342.222 87.432 345.209 86.7493 347.598 85.384C349.987 83.9333 351.95 81.8 353.486 78.984V65.288C352.462 62.5573 350.627 60.3813 347.982 58.76C345.337 57.1387 342.222 56.328 338.638 56.328C335.993 56.328 333.518 57.0107 331.214 58.376C328.995 59.656 327.203 61.448 325.838 63.752C324.473 66.056 323.79 68.7013 323.79 71.688C323.79 74.6747 324.473 77.3627 325.838 79.752C327.203 82.1413 328.995 84.0187 331.214 85.384C333.518 86.7493 335.993 87.432 338.638 87.432ZM408.017 102.152C403.409 102.152 399.1 101.341 395.089 99.72C391.164 98.0987 387.836 95.8373 385.105 92.936L392.529 83.08C395.26 85.5547 397.777 87.3467 400.081 88.456C402.47 89.48 404.604 89.992 406.481 89.992C408.7 89.992 410.534 89.6507 411.985 88.968C413.436 88.2853 414.161 87.176 414.161 85.64C414.161 84.1893 413.564 83.0373 412.369 82.184C411.26 81.3307 409.809 80.648 408.017 80.136C406.225 79.5387 404.305 78.9413 402.257 78.344C397.137 76.7227 393.425 74.376 391.121 71.304C388.902 68.1467 387.793 64.7333 387.793 61.064C387.793 58.248 388.518 55.432 389.969 52.616C391.505 49.7147 393.894 47.3253 397.137 45.448C400.465 43.4853 404.732 42.504 409.937 42.504C414.63 42.504 418.598 42.9733 421.841 43.912C425.084 44.8507 428.156 46.3867 431.057 48.52L424.273 59.016C422.652 57.736 420.817 56.6693 418.769 55.816C416.806 54.8773 414.972 54.3653 413.265 54.28C410.961 54.1947 409.169 54.6213 407.889 55.56C406.609 56.4133 405.969 57.4373 405.969 58.632C405.884 60.2533 406.481 61.5333 407.761 62.472C409.126 63.4107 410.833 64.136 412.881 64.648C414.929 65.16 416.934 65.7573 418.897 66.44C422.908 67.8053 426.108 69.768 428.497 72.328C430.886 74.8027 432.081 78.1307 432.081 82.312C432.081 85.7253 431.185 88.968 429.393 92.04C427.686 95.0267 425.041 97.4587 421.457 99.336C417.958 101.213 413.478 102.152 408.017 102.152ZM444.275 54.024C444.275 47.5387 445.512 41.3947 447.987 35.592C450.462 29.7893 453.875 24.6693 458.227 20.232C462.664 15.7093 467.784 12.168 473.587 9.60799C479.39 7.048 485.576 5.768 492.147 5.768C498.803 5.768 505.032 7.048 510.835 9.60799C516.638 12.168 521.758 15.7093 526.195 20.232C530.718 24.6693 534.216 29.7893 536.691 35.592C539.251 41.3947 540.531 47.5387 540.531 54.024C540.531 60.68 539.251 66.9093 536.691 72.712C534.216 78.5147 530.718 83.6347 526.195 88.072C521.758 92.424 516.638 95.8373 510.835 98.312C505.032 100.787 498.846 102.024 492.275 102.024C485.619 102.024 479.39 100.787 473.587 98.312C467.784 95.8373 462.664 92.424 458.227 88.072C453.875 83.6347 450.462 78.5147 447.987 72.712C445.512 66.9093 444.275 60.68 444.275 54.024ZM463.475 54.024C463.475 59.5707 464.755 64.648 467.315 69.256C469.96 73.7787 473.502 77.4053 477.939 80.136C482.376 82.7813 487.368 84.104 492.915 84.104C498.291 84.104 503.112 82.7813 507.379 80.136C511.731 77.4053 515.144 73.7787 517.619 69.256C520.094 64.648 521.331 59.5707 521.331 54.024C521.331 48.3067 520.051 43.1867 517.491 38.664C514.931 34.056 511.475 30.4293 507.123 27.784C502.771 25.0533 497.864 23.688 492.403 23.688C486.942 23.688 482.035 25.0533 477.683 27.784C473.331 30.4293 469.875 34.056 467.315 38.664C464.755 43.1867 463.475 48.3067 463.475 54.024ZM572.347 45.064L573.755 55.048L573.499 54.152C575.462 50.6533 578.235 47.8373 581.819 45.704C585.403 43.4853 589.798 42.376 595.003 42.376C600.294 42.376 604.688 43.9547 608.187 47.112C611.771 50.184 613.606 54.1947 613.691 59.144V101H595.771V65.8C595.686 63.3253 595.003 61.3627 593.723 59.912C592.528 58.376 590.48 57.608 587.579 57.608C583.398 57.608 580.07 59.5707 577.595 63.496C575.206 67.336 574.011 72.2427 574.011 78.216V101H556.091V45.064H572.347ZM632.091 0.00799561H650.011V101H632.091V0.00799561ZM672.946 127.88L710.194 45.064H726.322L690.226 127.88H672.946ZM687.922 101.256L660.53 45.064H680.626L701.746 92.296L687.922 101.256Z" fill="black"/>
</svg>
