<svg width="401" height="100" viewBox="0 0 401 100" fill="none" xmlns="http://www.w3.org/2000/svg">
<path d="M21.69 54.352L46.522 12.496H68.282L41.786 53.712L73.914 98H51.514L21.69 54.352ZM18.874 12.496V98H0.442V12.496H18.874ZM117.913 31.184C125.337 31.184 130.372 33.104 133.017 36.944C135.748 40.6987 137.113 46.0747 137.113 53.072V98H119.193V56.272C119.193 52.944 118.638 50.384 117.529 48.592C116.505 46.7147 113.945 45.776 109.849 45.776C105.753 45.776 102.041 47.3547 98.713 50.512V98H80.409V32.336H95.513L97.049 39.632C99.5237 37.328 102.638 35.3653 106.393 33.744C110.233 32.0373 114.073 31.184 117.913 31.184ZM168.204 98H150.284V32.464L168.204 30.928V98ZM148.62 11.344C148.62 8.44266 149.644 5.968 151.692 3.92C153.74 1.87199 156.215 0.847992 159.116 0.847992C162.017 0.847992 164.492 1.87199 166.54 3.92C168.588 5.968 169.612 8.44266 169.612 11.344C169.612 14.16 168.588 16.6347 166.54 18.768C164.492 20.9013 162.017 21.968 159.116 21.968C156.215 21.968 153.74 20.944 151.692 18.896C149.644 16.7627 148.62 14.2453 148.62 11.344ZM188.44 76.88V44.752L176.92 43.984V33.488L188.824 32.464V17.488L206.744 15.952V32.336H225.432L224.408 44.752H206.616V78.544C206.616 81.0187 207 82.8107 207.768 83.92C208.536 84.944 210.157 85.456 212.632 85.456C215.107 85.456 217.88 85.072 220.952 84.304L223.64 96.976C219.459 98.768 215.192 99.664 210.84 99.664C206.573 99.664 203.331 99.408 201.112 98.896C198.979 98.384 197.187 97.7867 195.736 97.104C194.371 96.4213 193.176 95.44 192.152 94.16C191.213 92.7947 190.488 91.6 189.976 90.576C189.549 89.552 189.208 88.1013 188.952 86.224C188.611 83.664 188.44 80.5493 188.44 76.88ZM240.065 76.88V44.752L228.545 43.984V33.488L240.449 32.464V17.488L258.369 15.952V32.336H277.057L276.033 44.752H258.241V78.544C258.241 81.0187 258.625 82.8107 259.393 83.92C260.161 84.944 261.782 85.456 264.257 85.456C266.732 85.456 269.505 85.072 272.577 84.304L275.265 96.976C271.084 98.768 266.817 99.664 262.465 99.664C258.198 99.664 254.956 99.408 252.737 98.896C250.604 98.384 248.812 97.7867 247.361 97.104C245.996 96.4213 244.801 95.44 243.777 94.16C242.838 92.7947 242.113 91.6 241.601 90.576C241.174 89.552 240.833 88.1013 240.577 86.224C240.236 83.664 240.065 80.5493 240.065 76.88ZM298.867 67.024C299.038 79.824 304.67 86.224 315.763 86.224C320.968 86.224 326.131 85.2427 331.251 83.28L334.323 95.44C327.752 98.256 320.456 99.664 312.435 99.664C292.211 99.664 282.099 87.76 282.099 63.952C282.099 54.5653 284.616 46.7573 289.651 40.528C294.686 34.2987 301.939 31.184 311.411 31.184C319.006 31.184 324.851 33.232 328.947 37.328C333.128 41.3387 335.219 46.9707 335.219 54.224C335.219 58.4907 334.664 62.7573 333.555 67.024H298.867ZM320.883 57.296V56.528C320.883 48.08 317.896 43.856 311.923 43.856C304.755 43.856 300.446 48.336 298.995 57.296H320.883ZM343.727 66.768C343.727 43.0453 352.986 31.184 371.503 31.184C376.196 31.184 379.994 31.952 382.895 33.488V7.12H400.943V98.896H386.095L385.071 94.032C380.292 97.4453 374.618 99.152 368.047 99.152C360.026 99.152 353.967 96.2507 349.871 90.448C345.775 84.6453 343.727 76.752 343.727 66.768ZM373.295 45.264C365.018 45.264 360.879 52.304 360.879 66.384C360.879 79.2693 364.719 85.712 372.399 85.712C376.324 85.712 379.866 84.7307 383.023 82.768V47.056C380.207 45.8613 376.964 45.264 373.295 45.264Z" fill="white"/>
</svg>
