<svg width="401" height="100" viewBox="0 0 401 100" fill="none" xmlns="http://www.w3.org/2000/svg">
<path d="M21.6922 54.324L46.5242 12.468H68.2842L41.7882 53.684L73.9162 97.972H51.5162L21.6922 54.324ZM18.8762 12.468V97.972H0.444198V12.468H18.8762ZM117.915 31.156C125.339 31.156 130.374 33.076 133.019 36.916C135.75 40.6707 137.115 46.0467 137.115 53.044V97.972H119.195V56.244C119.195 52.916 118.641 50.356 117.531 48.564C116.507 46.6867 113.947 45.748 109.851 45.748C105.755 45.748 102.043 47.3267 98.7152 50.484V97.972H80.4112V32.308H95.5152L97.0512 39.604C99.5259 37.3 102.641 35.3374 106.395 33.716C110.235 32.0094 114.075 31.156 117.915 31.156ZM168.206 97.972H150.286V32.436L168.206 30.9V97.972ZM148.622 11.316C148.622 8.41471 149.646 5.94004 151.694 3.89204C153.742 1.84404 156.217 0.820038 159.118 0.820038C162.02 0.820038 164.494 1.84404 166.542 3.89204C168.59 5.94004 169.614 8.41471 169.614 11.316C169.614 14.132 168.59 16.6067 166.542 18.74C164.494 20.8734 162.02 21.94 159.118 21.94C156.217 21.94 153.742 20.916 151.694 18.868C149.646 16.7347 148.622 14.2174 148.622 11.316ZM188.442 76.852V44.724L176.922 43.956V33.46L188.826 32.436V17.46L206.746 15.924V32.308H225.434L224.41 44.724H206.618V78.516C206.618 80.9907 207.002 82.7827 207.77 83.892C208.538 84.916 210.16 85.428 212.634 85.428C215.109 85.428 217.882 85.044 220.954 84.276L223.642 96.948C219.461 98.74 215.194 99.636 210.842 99.636C206.576 99.636 203.333 99.38 201.114 98.868C198.981 98.356 197.189 97.7587 195.738 97.076C194.373 96.3934 193.178 95.412 192.154 94.132C191.216 92.7667 190.49 91.572 189.978 90.548C189.552 89.524 189.21 88.0734 188.954 86.196C188.613 83.636 188.442 80.5214 188.442 76.852ZM240.067 76.852V44.724L228.547 43.956V33.46L240.451 32.436V17.46L258.371 15.924V32.308H277.059L276.035 44.724H258.243V78.516C258.243 80.9907 258.627 82.7827 259.395 83.892C260.163 84.916 261.785 85.428 264.259 85.428C266.734 85.428 269.507 85.044 272.579 84.276L275.267 96.948C271.086 98.74 266.819 99.636 262.467 99.636C258.201 99.636 254.958 99.38 252.739 98.868C250.606 98.356 248.814 97.7587 247.363 97.076C245.998 96.3934 244.803 95.412 243.779 94.132C242.841 92.7667 242.115 91.572 241.603 90.548C241.177 89.524 240.835 88.0734 240.579 86.196C240.238 83.636 240.067 80.5214 240.067 76.852ZM298.869 66.996C299.04 79.796 304.672 86.196 315.765 86.196C320.971 86.196 326.133 85.2147 331.253 83.252L334.325 95.412C327.755 98.228 320.459 99.636 312.437 99.636C292.213 99.636 282.101 87.732 282.101 63.924C282.101 54.5374 284.619 46.7294 289.653 40.5C294.688 34.2707 301.941 31.156 311.413 31.156C319.008 31.156 324.853 33.204 328.949 37.3C333.131 41.3107 335.221 46.9427 335.221 54.196C335.221 58.4627 334.667 62.7294 333.557 66.996H298.869ZM320.885 57.268V56.5C320.885 48.052 317.899 43.828 311.925 43.828C304.757 43.828 300.448 48.308 298.997 57.268H320.885ZM343.729 66.74C343.729 43.0174 352.988 31.156 371.505 31.156C376.199 31.156 379.996 31.924 382.897 33.46V7.09204H400.945V98.868H386.097L385.073 94.004C380.295 97.4174 374.62 99.124 368.049 99.124C360.028 99.124 353.969 96.2227 349.873 90.42C345.777 84.6174 343.729 76.724 343.729 66.74ZM373.297 45.236C365.02 45.236 360.881 52.276 360.881 66.356C360.881 79.2414 364.721 85.684 372.401 85.684C376.327 85.684 379.868 84.7027 383.025 82.74V47.028C380.209 45.8334 376.967 45.236 373.297 45.236Z" fill="black"/>
</svg>
