<svg width="538" height="118" viewBox="0 0 538 118" fill="none" xmlns="http://www.w3.org/2000/svg">
<path d="M47.5125 93.664C40.3445 93.664 33.8592 92.4693 28.0565 90.08C22.2538 87.6907 17.2618 84.3627 13.0805 80.096C8.89917 75.8293 5.6565 70.88 3.3525 65.248C1.13383 59.616 0.0245001 53.5573 0.0245001 47.072C0.0245001 40.5867 1.13383 34.528 3.3525 28.896C5.6565 23.264 8.8565 18.3573 12.9525 14.176C17.1338 9.90933 22.1258 6.62399 27.9285 4.31999C33.8165 1.93066 40.3445 0.735992 47.5125 0.735992C54.5952 0.735992 61.0378 1.93066 66.8405 4.31999C72.7285 6.62399 77.7205 9.90933 81.8165 14.176C85.9978 18.3573 89.2405 23.3067 91.5445 29.024C93.8485 34.656 95.0005 40.672 95.0005 47.072C95.0005 53.5573 93.8485 59.616 91.5445 65.248C89.2405 70.88 85.9978 75.8293 81.8165 80.096C77.7205 84.3627 72.7285 87.6907 66.8405 90.08C61.0378 92.4693 54.5952 93.664 47.5125 93.664ZM47.5125 75.36C51.2672 75.36 54.7232 74.6773 57.8805 73.312C61.1232 71.8613 63.8965 69.856 66.2005 67.296C68.5045 64.736 70.2965 61.7493 71.5765 58.336C72.8565 54.8373 73.4965 51.0827 73.4965 47.072C73.4965 43.0613 72.8565 39.3493 71.5765 35.936C70.2965 32.5227 68.5045 29.536 66.2005 26.976C63.8965 24.416 61.1232 22.4533 57.8805 21.088C54.7232 19.6373 51.2672 18.912 47.5125 18.912C43.6725 18.912 40.1738 19.6373 37.0165 21.088C33.8592 22.4533 31.0858 24.416 28.6965 26.976C26.3925 29.536 24.6005 32.5653 23.3205 36.064C22.1258 39.4773 21.5285 43.1467 21.5285 47.072C21.5285 51.0827 22.1258 54.8373 23.3205 58.336C24.6005 61.7493 26.3925 64.736 28.6965 67.296C31.0858 69.856 33.8592 71.8613 37.0165 73.312C40.1738 74.6773 43.6725 75.36 47.5125 75.36ZM138.755 93.536C132.013 93.536 126.168 92.256 121.219 89.696C116.355 87.0507 112.6 83.5093 109.955 79.072C107.309 74.5493 105.987 69.5573 105.987 64.096V26.336H125.827V63.584C125.827 65.888 126.381 68.0213 127.491 69.984C128.6 71.8613 130.093 73.3973 131.971 74.592C133.933 75.7013 136.152 76.256 138.627 76.256C141.016 76.256 143.149 75.7013 145.027 74.592C146.989 73.3973 148.525 71.8613 149.635 69.984C150.744 68.0213 151.299 65.888 151.299 63.584V26.336H171.139V64.096C171.139 69.5573 169.859 74.5493 167.299 79.072C164.739 83.5093 161.027 87.0507 156.163 89.696C151.384 92.256 145.581 93.536 138.755 93.536ZM185.475 92V45.664C185.475 39.6907 187.181 34.9973 190.595 31.584C194.008 28.1707 198.744 26.464 204.803 26.464H223.875V42.592H209.667C208.472 42.592 207.448 43.0187 206.595 43.872C205.741 44.64 205.315 45.664 205.315 46.944V92H185.475ZM259.104 93.536C253.302 93.536 248.182 92.0427 243.745 89.056C239.307 86.0693 235.851 82.0587 233.377 77.024C230.902 71.904 229.665 66.144 229.665 59.744C229.665 53.088 231.115 47.1573 234.017 41.952C236.918 36.6613 241.014 32.48 246.305 29.408C251.681 26.336 257.995 24.8 265.249 24.8C272.587 24.8 278.817 26.336 283.937 29.408C289.142 32.3947 293.11 36.5333 295.84 41.824C298.657 47.0293 300.065 52.8747 300.065 59.36V92H280.609V81.504H280.097C278.902 83.808 277.366 85.8987 275.489 87.776C273.611 89.568 271.307 90.976 268.577 92C265.931 93.024 262.774 93.536 259.104 93.536ZM264.993 76.384C267.979 76.384 270.582 75.6587 272.801 74.208C275.105 72.672 276.854 70.5813 278.049 67.936C279.243 65.2907 279.841 62.3467 279.841 59.104C279.841 55.9467 279.243 53.088 278.049 50.528C276.854 47.968 275.105 45.9627 272.801 44.512C270.582 42.976 267.979 42.208 264.993 42.208C261.921 42.208 259.233 42.976 256.929 44.512C254.625 45.9627 252.875 47.968 251.681 50.528C250.486 53.088 249.889 55.9467 249.889 59.104C249.889 62.3467 250.486 65.2907 251.681 67.936C252.875 70.5813 254.625 72.672 256.929 74.208C259.233 75.6587 261.921 76.384 264.993 76.384ZM314.737 92V54.24C314.737 48.7787 316.059 43.8293 318.705 39.392C321.35 34.9547 325.105 31.4133 329.969 28.768C334.918 26.1227 340.763 24.8 347.505 24.8C354.331 24.8 360.134 26.1227 364.913 28.768C369.777 31.4133 373.489 34.9547 376.049 39.392C378.609 43.8293 379.889 48.7787 379.889 54.24V92H360.049V54.752C360.049 52.448 359.494 50.3573 358.385 48.48C357.275 46.5173 355.739 44.9813 353.777 43.872C351.899 42.6773 349.766 42.08 347.377 42.08C344.902 42.08 342.683 42.6773 340.721 43.872C338.843 44.9813 337.35 46.5173 336.241 48.48C335.131 50.3573 334.577 52.448 334.577 54.752V92H314.737ZM404.721 117.984V100.96H437.489C438.769 100.96 439.835 100.533 440.689 99.68C441.542 98.912 441.969 97.9307 441.969 96.736V82.272H441.585C439.878 84.2347 438.043 85.8987 436.081 87.264C434.203 88.6293 432.07 89.6533 429.681 90.336C427.377 91.0187 424.774 91.36 421.873 91.36C416.07 91.36 410.865 89.9947 406.257 87.264C401.734 84.448 398.15 80.5653 395.505 75.616C392.945 70.6667 391.665 65.0347 391.665 58.72C391.665 52.4907 392.987 46.816 395.633 41.696C398.363 36.576 402.331 32.48 407.537 29.408C412.742 26.336 419.099 24.8 426.609 24.8C433.777 24.8 439.963 26.2933 445.169 29.28C450.459 32.1813 454.555 36.32 457.457 41.696C460.358 46.9867 461.809 53.216 461.809 60.384V98.784C461.809 104.672 460.059 109.323 456.561 112.736C453.147 116.235 448.411 117.984 442.353 117.984H404.721ZM426.737 74.72C429.809 74.72 432.454 74.0373 434.673 72.672C436.891 71.2213 438.598 69.3013 439.793 66.912C440.987 64.5227 441.585 61.8773 441.585 58.976C441.585 55.904 440.987 53.088 439.793 50.528C438.598 47.968 436.891 45.9627 434.673 44.512C432.454 42.976 429.809 42.208 426.737 42.208C423.75 42.208 421.105 42.9333 418.801 44.384C416.582 45.8347 414.875 47.7973 413.681 50.272C412.486 52.7467 411.889 55.52 411.889 58.592C411.889 61.5787 412.486 64.3093 413.681 66.784C414.875 69.1733 416.582 71.0933 418.801 72.544C421.105 73.9947 423.75 74.72 426.737 74.72ZM510.416 92C502.992 92 496.464 90.6347 490.832 87.904C485.2 85.088 480.805 81.248 477.648 76.384C474.576 71.4347 473.04 65.7173 473.04 59.232C473.04 52.064 474.533 45.92 477.52 40.8C480.506 35.68 484.474 31.7547 489.424 29.024C494.458 26.208 500.005 24.8 506.064 24.8C512.976 24.8 518.736 26.2507 523.344 29.152C528.037 32.0533 531.578 36.0213 533.968 41.056C536.357 46.0053 537.552 51.68 537.552 58.08C537.552 59.1893 537.466 60.512 537.296 62.048C537.21 63.4987 537.082 64.6507 536.912 65.504H493.904C494.416 67.7227 495.397 69.6 496.848 71.136C498.298 72.672 500.133 73.824 502.352 74.592C504.57 75.2747 507.045 75.616 509.776 75.616H529.872V92H510.416ZM493.392 53.088H518.352C518.181 51.7227 517.925 50.4 517.584 49.12C517.242 47.84 516.688 46.7307 515.92 45.792C515.237 44.768 514.426 43.9147 513.488 43.232C512.549 42.464 511.44 41.8667 510.16 41.44C508.965 41.0133 507.6 40.8 506.064 40.8C504.101 40.8 502.352 41.1413 500.816 41.824C499.28 42.5067 498 43.4453 496.976 44.64C495.952 45.7493 495.141 47.072 494.544 48.608C494.032 50.0587 493.648 51.552 493.392 53.088Z" fill="#FF6700"/>
</svg>
