<svg width="341" height="118" viewBox="0 0 341 118" fill="none" xmlns="http://www.w3.org/2000/svg">
<path d="M28.9105 91V1.91199H49.0065V91H28.9105ZM0.6225 18.168V0.631996H77.2945V18.168H0.6225ZM74.3495 91V28.792H93.9335V91H74.3495ZM93.9335 56.824L85.7415 50.424C87.3628 43.1707 90.0935 37.5387 93.9335 33.528C97.7735 29.5173 103.107 27.512 109.934 27.512C112.92 27.512 115.523 27.9813 117.742 28.92C120.046 29.7733 122.051 31.1387 123.758 33.016L112.11 47.736C111.256 46.7973 110.19 46.072 108.91 45.56C107.63 45.048 106.179 44.792 104.558 44.792C101.315 44.792 98.7122 45.816 96.7495 47.864C94.8722 49.8267 93.9335 52.8133 93.9335 56.824ZM157.177 92.408C150.777 92.408 144.974 91 139.769 88.184C134.649 85.2827 130.595 81.3573 127.609 76.408C124.622 71.4587 123.129 65.912 123.129 59.768C123.129 53.624 124.622 48.12 127.609 43.256C130.595 38.392 134.649 34.552 139.769 31.736C144.889 28.8347 150.691 27.384 157.177 27.384C163.662 27.384 169.465 28.792 174.585 31.608C179.705 34.424 183.758 38.3067 186.745 43.256C189.731 48.12 191.225 53.624 191.225 59.768C191.225 65.912 189.731 71.4587 186.745 76.408C183.758 81.3573 179.705 85.2827 174.585 88.184C169.465 91 163.662 92.408 157.177 92.408ZM157.177 74.616C159.993 74.616 162.467 74.0187 164.601 72.824C166.734 71.544 168.355 69.7947 169.465 67.576C170.659 65.272 171.257 62.6693 171.257 59.768C171.257 56.8667 170.659 54.3493 169.465 52.216C168.27 49.9973 166.606 48.2907 164.473 47.096C162.425 45.816 159.993 45.176 157.177 45.176C154.446 45.176 152.014 45.816 149.881 47.096C147.747 48.2907 146.083 49.9973 144.889 52.216C143.694 54.4347 143.097 56.9947 143.097 59.896C143.097 62.712 143.694 65.272 144.889 67.576C146.083 69.7947 147.747 71.544 149.881 72.824C152.014 74.0187 154.446 74.616 157.177 74.616ZM230.927 92.408C224.527 92.408 218.724 91 213.519 88.184C208.399 85.2827 204.345 81.3573 201.359 76.408C198.372 71.4587 196.879 65.912 196.879 59.768C196.879 53.624 198.372 48.12 201.359 43.256C204.345 38.392 208.399 34.552 213.519 31.736C218.639 28.8347 224.441 27.384 230.927 27.384C237.412 27.384 243.215 28.792 248.335 31.608C253.455 34.424 257.508 38.3067 260.495 43.256C263.481 48.12 264.975 53.624 264.975 59.768C264.975 65.912 263.481 71.4587 260.495 76.408C257.508 81.3573 253.455 85.2827 248.335 88.184C243.215 91 237.412 92.408 230.927 92.408ZM230.927 74.616C233.743 74.616 236.217 74.0187 238.351 72.824C240.484 71.544 242.105 69.7947 243.215 67.576C244.409 65.272 245.007 62.6693 245.007 59.768C245.007 56.8667 244.409 54.3493 243.215 52.216C242.02 49.9973 240.356 48.2907 238.223 47.096C236.175 45.816 233.743 45.176 230.927 45.176C228.196 45.176 225.764 45.816 223.631 47.096C221.497 48.2907 219.833 49.9973 218.639 52.216C217.444 54.4347 216.847 56.9947 216.847 59.896C216.847 62.712 217.444 65.272 218.639 67.576C219.833 69.7947 221.497 71.544 223.631 72.824C225.764 74.0187 228.196 74.616 230.927 74.616ZM310.565 92.28C306.383 92.28 302.543 91.4693 299.045 89.848C295.546 88.2267 292.687 86.008 290.469 83.192C288.25 80.2907 286.97 77.0053 286.628 73.336V47.096C286.97 43.4267 288.25 40.0987 290.469 37.112C292.687 34.1253 295.546 31.7787 299.045 30.072C302.543 28.3653 306.383 27.512 310.565 27.512C316.453 27.512 321.658 28.92 326.181 31.736C330.789 34.552 334.373 38.392 336.933 43.256C339.578 48.12 340.901 53.6667 340.901 59.896C340.901 66.1253 339.578 71.672 336.933 76.536C334.373 81.4 330.789 85.24 326.181 88.056C321.658 90.872 316.453 92.28 310.565 92.28ZM274.725 117.24V28.792H294.309V44.792L291.109 59.896L294.053 75V117.24H274.725ZM306.981 74.616C309.797 74.616 312.229 73.976 314.277 72.696C316.41 71.416 318.074 69.6667 319.269 67.448C320.463 65.2293 321.061 62.712 321.061 59.896C321.061 56.9947 320.463 54.4347 319.269 52.216C318.074 49.9973 316.41 48.2907 314.277 47.096C312.229 45.816 309.839 45.176 307.109 45.176C304.378 45.176 301.946 45.816 299.812 47.096C297.765 48.2907 296.143 49.9973 294.949 52.216C293.754 54.4347 293.157 56.9947 293.157 59.896C293.157 62.712 293.711 65.2293 294.821 67.448C296.015 69.6667 297.679 71.416 299.812 72.696C301.946 73.976 304.335 74.616 306.981 74.616Z" fill="black"/>
</svg>
