<svg width="174" height="97" viewBox="0 0 174 97" fill="none" xmlns="http://www.w3.org/2000/svg">
<path d="M20.5075 97C14.4488 97 9.54217 95.1653 5.7875 91.496C2.03283 87.8267 0.1555 83.1333 0.1555 77.416C0.1555 74.6853 0.710167 72.0827 1.8195 69.608C2.92883 67.048 4.7635 64.6587 7.3235 62.44L45.4675 28.392C45.6382 28.2213 45.7662 28.0507 45.8515 27.88C46.0222 27.624 46.1075 27.368 46.1075 27.112C46.1075 26.7707 45.9795 26.472 45.7235 26.216C45.5528 25.8747 45.2968 25.6187 44.9555 25.448C44.6995 25.2773 44.4008 25.192 44.0595 25.192H2.3315V7.39999H48.7955C52.8915 7.39999 56.4328 8.25333 59.4195 9.96C62.4915 11.5813 64.8808 13.8853 66.5875 16.872C68.2942 19.7733 69.1475 23.144 69.1475 26.984C69.1475 29.7147 68.5928 32.36 67.4835 34.92C66.4595 37.3947 64.7955 39.656 62.4915 41.704L23.8355 75.88C23.7502 75.9653 23.6222 76.0933 23.4515 76.264C23.3662 76.4347 23.2808 76.6053 23.1955 76.776C23.1955 76.8613 23.1955 77.032 23.1955 77.288C23.1955 77.6293 23.2808 77.9707 23.4515 78.312C23.6222 78.568 23.8782 78.7813 24.2195 78.952C24.5608 79.1227 24.9448 79.208 25.3715 79.208H69.7875V97H20.5075ZM81.2365 97V31.336H101.205V97H81.2365ZM91.2205 23.912C88.0632 23.912 85.3325 22.76 83.0285 20.456C80.7245 18.152 79.5725 15.4213 79.5725 12.264C79.5725 9.10666 80.7245 6.37599 83.0285 4.072C85.3325 1.68267 88.0632 0.487999 91.2205 0.487999C94.3778 0.487999 97.1085 1.68267 99.4125 4.072C101.717 6.37599 102.869 9.10666 102.869 12.264C102.869 15.4213 101.717 18.152 99.4125 20.456C97.1085 22.76 94.3778 23.912 91.2205 23.912ZM159.641 97C152.302 97 145.689 95.8907 139.801 93.672C133.913 91.368 128.921 88.168 124.825 84.072C120.729 79.976 117.571 75.24 115.353 69.864C113.134 64.4027 112.025 58.5147 112.025 52.2C112.025 45.8853 113.134 40.04 115.353 34.664C117.571 29.2027 120.729 24.424 124.825 20.328C129.006 16.232 133.998 13.0747 139.801 10.856C145.689 8.55199 152.302 7.39999 159.641 7.39999H173.465V25.32H160.153C156.142 25.32 152.473 26.0027 149.145 27.368C145.902 28.7333 143.086 30.6533 140.697 33.128C138.393 35.5173 136.601 38.3333 135.321 41.576C134.126 44.8187 133.529 48.36 133.529 52.2C133.529 56.04 134.126 59.5813 135.321 62.824C136.601 66.0667 138.393 68.9253 140.697 71.4C143.086 73.7893 145.902 75.6667 149.145 77.032C152.473 78.3973 156.142 79.08 160.153 79.08H173.465V97H159.641Z" fill="black"/>
</svg>
